<svg width="94" height="52" viewBox="0 0 94 52" fill="none" xmlns="http://www.w3.org/2000/svg">
<g clip-path="url(#clip0)">
<path d="M94.0002 0.814664H72.2388C68.5441 0.72823 56.9672 3.2003 40.2177 13.7801H11.8914C8.33346 14.9038 0.810547 18.9641 0.810547 25.1875" stroke="white" stroke-width="2"/>
<path d="M82.655 5.68886H72.5027C69.9341 5.63469 61.8857 7.1836 50.2412 13.8125H63.6119" stroke="white" stroke-width="2"/>
<path d="M8.12109 30.095C8.12109 28.275 8.47765 26.6825 9.19075 25.3175C9.92541 23.9308 10.9302 22.8692 12.2052 22.1325C13.5018 21.3742 14.9604 20.995 16.5811 20.995C18.2666 20.995 19.7144 21.385 20.9245 22.165C22.1563 22.945 23.0422 23.9417 23.5825 25.155V21.255H25.8514V39H23.5825V35.0675C23.0206 36.2808 22.1239 37.2883 20.8921 38.09C19.682 38.87 18.2342 39.26 16.5487 39.26C14.9495 39.26 13.5018 38.8808 12.2052 38.1225C10.9302 37.3642 9.92541 36.2917 9.19075 34.905C8.47765 33.5183 8.12109 31.915 8.12109 30.095ZM23.5825 30.1275C23.5825 28.6975 23.2907 27.4408 22.7073 26.3575C22.1239 25.2742 21.3243 24.44 20.3087 23.855C19.3146 23.27 18.2126 22.9775 17.0025 22.9775C15.7491 22.9775 14.6254 23.2592 13.6314 23.8225C12.6374 24.3858 11.8487 25.2092 11.2652 26.2925C10.7033 27.3542 10.4225 28.6217 10.4225 30.095C10.4225 31.5467 10.7033 32.825 11.2652 33.93C11.8487 35.0133 12.6374 35.8475 13.6314 36.4325C14.6254 36.9958 15.7491 37.2775 17.0025 37.2775C18.2126 37.2775 19.3146 36.985 20.3087 36.4C21.3243 35.815 22.1239 34.9808 22.7073 33.8975C23.2907 32.8142 23.5825 31.5575 23.5825 30.1275ZM37.1251 39.26C35.0938 39.26 33.4299 38.7942 32.1334 37.8625C30.8584 36.9092 30.1453 35.62 29.9941 33.995H32.3279C32.4359 34.9917 32.9005 35.8042 33.7217 36.4325C34.5644 37.0392 35.6881 37.3425 37.0927 37.3425C38.3244 37.3425 39.286 37.05 39.9775 36.465C40.6906 35.88 41.0472 35.1542 41.0472 34.2875C41.0472 33.6808 40.8527 33.1825 40.4637 32.7925C40.0748 32.4025 39.5777 32.0992 38.9727 31.8825C38.3893 31.6442 37.5897 31.395 36.5741 31.135C35.2559 30.7883 34.1862 30.4417 33.3651 30.095C32.5439 29.7483 31.8417 29.2392 31.2582 28.5675C30.6963 27.8742 30.4155 26.9533 30.4155 25.805C30.4155 24.9383 30.6748 24.1367 31.1934 23.4C31.712 22.6633 32.4467 22.0783 33.3975 21.645C34.3483 21.2117 35.4287 20.995 36.6389 20.995C38.5405 20.995 40.0748 21.4825 41.2417 22.4575C42.4086 23.4108 43.0352 24.7325 43.1217 26.4225H40.8527C40.7879 25.3825 40.3773 24.5483 39.621 23.92C38.8862 23.27 37.8706 22.945 36.5741 22.945C35.4287 22.945 34.4996 23.2158 33.7865 23.7575C33.0734 24.2992 32.7168 24.9708 32.7168 25.7725C32.7168 26.4658 32.9221 27.04 33.3327 27.495C33.7649 27.9283 34.2943 28.275 34.921 28.535C35.5476 28.7733 36.3904 29.0442 37.4493 29.3475C38.7242 29.6942 39.7398 30.03 40.4962 30.355C41.2524 30.68 41.9007 31.1567 42.441 31.785C42.9812 32.4133 43.2621 33.2475 43.2837 34.2875C43.2837 35.2408 43.0244 36.0967 42.5058 36.855C41.9872 37.5917 41.2632 38.1767 40.3341 38.61C39.4049 39.0433 38.3352 39.26 37.1251 39.26ZM50.5044 23.1725V34.19C50.5044 35.2733 50.7097 36.0208 51.1203 36.4325C51.5308 36.8442 52.2547 37.05 53.292 37.05H55.3665V39H52.9354C51.3363 39 50.1478 38.6317 49.3699 37.895C48.592 37.1367 48.203 35.9017 48.203 34.19V23.1725H45.7396V21.255H48.203V16.8025H50.5044V21.255H55.3665V23.1725H50.5044ZM66.8554 39.26C65.1915 39.26 63.6896 38.8917 62.3499 38.155C61.0317 37.3967 59.9837 36.335 59.2057 34.97C58.4494 33.5833 58.0712 31.9692 58.0712 30.1275C58.0712 28.2858 58.4602 26.6825 59.2381 25.3175C60.0161 23.9308 61.0749 22.8692 62.4147 22.1325C63.7544 21.3742 65.2563 20.995 66.9202 20.995C68.5841 20.995 70.086 21.3742 71.4257 22.1325C72.7871 22.8692 73.846 23.9308 74.6023 25.3175C75.3802 26.6825 75.7692 28.2858 75.7692 30.1275C75.7692 31.9475 75.3802 33.5508 74.6023 34.9375C73.8243 36.3242 72.7547 37.3967 71.3933 38.155C70.0319 38.8917 68.5193 39.26 66.8554 39.26ZM66.8554 37.2775C68.0223 37.2775 69.1027 37.0175 70.0967 36.4975C71.0908 35.9558 71.8903 35.1542 72.4954 34.0925C73.122 33.0092 73.4354 31.6875 73.4354 30.1275C73.4354 28.5675 73.1329 27.2567 72.5278 26.195C71.9227 25.1117 71.1232 24.31 70.1292 23.79C69.1351 23.2483 68.0547 22.9775 66.8878 22.9775C65.7209 22.9775 64.6405 23.2483 63.6464 23.79C62.6524 24.31 61.8529 25.1117 61.2478 26.195C60.6643 27.2567 60.3726 28.5675 60.3726 30.1275C60.3726 31.6875 60.6643 33.0092 61.2478 34.0925C61.8529 35.1542 62.6416 35.9558 63.614 36.4975C64.608 37.0175 65.6885 37.2775 66.8554 37.2775ZM82.174 24.4075C82.6715 23.3025 83.4276 22.4467 84.4429 21.84C85.4802 21.2333 86.7443 20.93 88.2354 20.93V23.3025H87.6195C85.9777 23.3025 84.6593 23.7467 83.665 24.635C82.6715 25.5233 82.174 27.0075 82.174 29.0875V39H79.9053V21.255H82.174V24.4075Z" fill="white"/>
</g>
<defs>
<clipPath id="clip0">
<rect width="94" height="52" fill="white"/>
</clipPath>
</defs>
</svg>
